<svg xmlns="http://www.w3.org/2000/svg" id="versao_2" version="1.1" viewBox="242.43 380.13 357.03 401.28">
  <!-- Generator: Adobe Illustrator 30.0.0, SVG Export Plug-In . SVG Version: 2.1.1 Build 123)  -->
  <defs>
    <style>
      .st0 {
        fill: #fdf2d6;
      }
    </style>
  </defs>
  <text/>
  <g>
    <path class="st0" d="M419.67,700.89c-.21-.13-3.51-1.37-10.09-3.85-9.4-3.54-11.49-4.28-13.45-3.85-3.6.79-4,4.88-4.19,6.53-1.57,13.74-8.2,25.62-11.06,38.91-4.39,20.45-7.12,24.41-2.4,29.3,4.07,4.22,10.62,5.86,23.56,9.4,12.27,3.36,18.41,5.04,22.55,3.51,8.85-3.28.02-16.34-.32-42.88-.24-18.15,3.63-31.96-4.6-37.06Z"/>
    <path class="st0" d="M520.25,574.4"/>
    <path class="st0" d="M296.18,710.27c-12.74-5.08-29.3-28.66-30.12-43.11-.37-6.54,10.3-11.18,31.67-20.19,20.55-8.67,30.98-12.87,38.34-5.76,3.86,3.73,5.61,8.72,6.14,10.22,4.49,12.81-4.39,19.07-19.12,35.23-18.81,20.62-19.19,26.7-26.91,23.62Z"/>
    <path class="st0" d="M260.11,645.74c-8.69-7.37-14.19-29.9-9.92-41.15,1.93-5.09,12.26-5.71,32.83-6.73,19.79-.98,29.77-1.32,33.36,6.11,1.89,3.9,1.61,8.19,1.53,9.48-.71,11.01-10.11,13.35-27.7,21.63-22.45,10.58-24.84,15.11-30.11,10.65Z"/>
    <path class="st0" d="M379.85,682.62c-.12-.17-2.42-2.03-7-5.74-6.54-5.3-8.02-6.44-9.91-6.47-3.47-.06-5.65,3.63-6.55,5.11-7.52,12.32-16.26,16.96-24.7,28.6-12.98,17.89-17.12,20.95-15.23,26.49,1.63,4.77,6.56,7.71,16.16,13.78,9.11,5.76,13.67,8.64,17.94,8.12,9.13-1.1,7.36-15.05,18.98-39.59,7.95-16.78,15.15-23.8,10.32-30.29Z"/>
    <path class="st0" d="M312.13,573.93c.07-.18.5-2.86,1.37-8.22,1.23-7.65,1.47-9.34.71-10.82-1.38-2.71-4.98-2.59-6.44-2.57-12.15.22-23.68-3.69-35.7-4.52-18.48-1.28-22.43-2.97-25.73,1.19-2.85,3.59-3,8.84-3.55,19.23-.52,9.86-.78,14.79,1.34,17.83,4.54,6.52,14.09-1.68,36.92-4.71,15.61-2.07,28.26-.51,31.07-7.42Z"/>
    <path class="st0" d="M313.77,535.63c4.48-3.68,9.84-12.04,9.28-17.17-.19-1.69-.99-2.59-1.3-2.98-5.2-6.55-33.52-17.8-34.35-18.19-18.13-8.4-21.54-11.56-26.21-8.84-4.03,2.34-5.88,7.32-9.81,17.08-3.73,9.26-5.59,13.89-4.45,17.64,2.7,8.89,14.63,4.41,38.57,9.8,15.59,3.51,21.31,8.36,28.26,2.67Z"/>
    <path class="st0" d="M531.39,584.58c-.14.1-1.85,1.88-5.26,5.42-4.87,5.06-5.92,6.2-6.21,7.53-.54,2.45,1.88,3.67,2.84,4.18,8.05,4.25,13.51,11.23,20.91,16.18,11.39,7.61,13.07,10.27,17.44,8.46,3.77-1.55,6.65-5.28,12.53-12.56,5.57-6.91,8.36-10.36,8.59-13.33.5-6.34-10.1-3.9-26.61-9.98-11.3-4.16-18.73-9.87-24.23-5.91Z"/>
    <path class="st0" d="M327.05,497.36c5.63-1.26,14.28-6.11,16.27-10.68.66-1.51.4-2.6.32-3.05-1.31-7.67-20.26-28.81-20.78-29.48-11.55-14.54-12.96-18.61-18.29-18.24-4.59.32-8.59,3.76-16.68,10.38-7.67,6.28-11.51,9.43-12.34,13.06-1.96,8.62,10.46,9.74,28.46,24.14,11.72,9.38,14.3,15.82,23.03,13.87Z"/>
    <path class="st0" d="M322.15,413.54c5.64-9.31,25.96-17.39,37.12-14.65,5.05,1.24,7.13,11.15,11.08,30.91,3.8,19.01,5.57,28.61-.87,33-3.38,2.31-7.44,2.57-8.67,2.65-10.42.67-13.98-8.13-24.31-24.11-13.18-20.4-17.77-22.15-14.36-27.79Z"/>
    <path class="st0" d="M377.96,388.84c8.45-6.57,30.53-7.75,40.29-2.05,4.42,2.58,3.14,11.95.4,30.58-2.63,17.93-4.1,26.93-11.71,28.92-3.99,1.05-7.96.08-9.15-.21-10.17-2.47-10.67-11.3-15.27-28.46-5.87-21.9-9.68-24.81-4.56-28.79Z"/>
    <path class="st0" d="M442.36,380.74c10.49-2.82,31.79,4.59,38.85,13.63,3.19,4.09-1.58,12.26-11.25,28.44-9.3,15.57-14.12,23.33-22.06,22.24-4.17-.57-7.55-2.99-8.57-3.72-8.67-6.2-5.79-14.56-3.61-32.21,2.78-22.52.28-26.68,6.64-28.39Z"/>
    <path class="st0" d="M574.09,474.31c.51-10.85-10.23-30.45-19.68-35.72-4.28-2.39-10.68,3.82-23.32,16.34-12.16,12.04-18.18,18.22-15.68,25.84,1.31,4,4.13,6.88,4.98,7.75,7.22,7.39,14.16,3,29.55-2.41,19.64-6.91,23.84-5.22,24.15-11.79Z"/>
    <path class="st0" d="M534.57,421.21c-4.36-9.49-22.19-20.24-32.59-19.52-4.71.32-7.43,9.12-12.69,26.69-5.06,16.91-7.48,25.46-1.97,30.56,2.89,2.67,6.57,3.57,7.67,3.84,9.43,2.31,13.42-5.23,24.17-18.28,13.72-16.66,18.05-17.53,15.41-23.28Z"/>
    <path class="st0" d="M593.29,524.89c3.18-9.87-2.33-30.08-10.14-36.85-3.54-3.07-11.25,1.34-26.54,10.26-14.71,8.59-22.05,13.04-21.52,20.55.28,3.94,2.28,7.17,2.88,8.14,5.14,8.27,12.91,5.65,29.1,3.81,20.66-2.35,24.29.07,26.21-5.91Z"/>
    <path class="st0" d="M588.28,586.8c7.7-7.7,13.4-29.62,10.32-40.02-1.39-4.71-10.1-4.49-27.46-3.87-16.7.6-25.12,1.05-28.51,8.42-1.78,3.87-1.75,7.94-1.74,9.17.08,10.44,7.93,11.95,22.42,18.49,18.49,8.35,20.3,12.48,24.97,7.82Z"/>
    <path class="st0" d="M466.33,684.73c8.98,4.47,29.11,2.13,36.72-4.37,3.44-2.94.35-10.96-5.98-26.89-6.09-15.32-9.28-22.99-16.55-23.58-3.81-.31-7.19,1.14-8.2,1.58-8.65,3.72-7.28,11.54-7.86,27.3-.75,20.11-3.58,23.24,1.86,25.95Z"/>
    <path class="st0" d="M520.58,665.65c10.24-.92,26.87-13.65,30.3-23.31,1.55-4.37-5.28-9.65-19.01-20.02-13.21-9.98-19.95-14.9-26.68-11.54-3.53,1.77-5.78,4.81-6.46,5.73-5.77,7.81-.56,13.83,6.96,27.74,9.6,17.75,8.68,21.96,14.88,21.4Z"/>
    <path class="st0" d="M449.98,632.11c-3.63-3.4-11.21-7.42-15.32-6.92-1.35.16-1.98.79-2.25,1.03-4.61,4.07-9.79,25.96-9.99,26.59-4.29,14.02-6.39,16.68-3.51,20.23,2.48,3.06,6.8,4.43,15.32,7.33,8.08,2.75,12.12,4.13,15.02,3.21,6.87-2.18,1.53-11.29,2.55-29.74.67-12.02,3.81-16.47-1.81-21.74Z"/>
    <path class="st0" d="M405.15,664.65c-9.22-.96-25.74-12.64-30.12-21.38-1.98-3.95,3.37-8.62,14.13-17.79,10.36-8.82,15.67-13.16,22.11-10.05,3.38,1.64,5.8,4.41,6.52,5.24,6.2,7.11,2.4,12.46-2.37,24.89-6.09,15.86-4.7,19.66-10.28,19.08Z"/>
    <path class="st0" d="M342.31,601.84c-.24,8.7,8.38,24.73,15.8,29.21,3.36,2.03,8.25-2.8,17.9-12.52,9.28-9.36,13.88-14.17,11.83-20.35-1.08-3.25-3.31-5.64-3.98-6.35-5.72-6.13-11.05-2.78-22.94,1.17-15.17,5.04-18.46,3.58-18.61,8.85Z"/>
    <path class="st0" d="M329.65,558.6c-3.28,7.92-.8,25.55,4.59,32.17,2.44,2.99,8.72.21,21.18-5.49,11.99-5.48,17.99-8.36,18.23-14.73.13-3.35-1.13-6.29-1.51-7.18-3.22-7.56-9.39-6.27-21.94-6.64-16.01-.47-18.58-2.92-20.56,1.87Z"/>
    <path class="st0" d="M374.94,543.31c.12-.1,1.6-1.84,4.54-5.31,4.21-4.95,5.11-6.06,5.36-7.24.45-2.17-1.67-2.91-2.51-3.23-7.06-2.63-11.87-7.94-18.37-11.26-10-5.1-11.48-7.17-15.28-5.08-3.27,1.8-5.76,5.36-10.83,12.34-4.81,6.63-7.21,9.94-7.39,12.51-.38,5.5,8.84,2.08,23.29,5.23,9.89,2.16,16.42,6.12,21.18,2.04Z"/>
    <path class="st0" d="M361.74,493.64c3.91-7.74,19.67-17.84,28.8-18.38,4.13-.24,6.45,6.22,10.91,19.15,4.29,12.44,6.34,18.75,1.46,23.23-2.56,2.35-5.8,3.43-6.77,3.75-8.31,2.75-11.74-2.61-21.06-11.5-11.9-11.35-15.7-11.56-13.33-16.25Z"/>
    <path class="st0" d="M442.33,465.94c-8.7-3.15-28.77-1.21-36.6,3.61-3.55,2.18-.84,7.98,4.73,19.5,5.36,11.08,8.18,16.63,15.35,16.97,3.77.18,7.18-.92,8.2-1.25,8.75-2.81,7.73-8.49,9.01-19.96,1.63-14.65,4.58-16.96-.69-18.86Z"/>
    <path class="st0" d="M461.52,473.37c8.13.4,23.7,9.54,28.39,16.72,2.12,3.25-2.06,7.42-10.52,15.63-8.14,7.9-12.33,11.8-18.25,9.45-3.11-1.23-5.49-3.47-6.21-4.14-6.11-5.73-3.34-10.41-.44-21.11,3.71-13.65,2.11-16.8,7.04-16.55Z"/>
    <path class="st0" d="M497.58,499.98c6.52,3.67,14.83,17.63,15.12,25.52.13,3.57-5.42,5.31-16.53,8.66-10.68,3.22-16.1,4.74-19.83.36-1.96-2.3-2.81-5.13-3.07-5.98-2.19-7.26,2.45-10.01,10.2-17.7,9.9-9.81,10.15-13.08,14.1-10.86Z"/>
    <path class="st0" d="M517.1,538.03c3.63,6.69,3.4,23.32-.47,30.35-3.68,6.68-9.19,4.33-18.56-1.3-3.03-1.82-16.85-10.13-16.52-17.16.21-4.48,5.37-6.96,17.91-9.97,13.53-3.26,15.45-5.97,17.65-1.91Z"/>
    <path class="st0" d="M468.41,608.53c-5.16,4.46-19.41,6.51-26.03,3.67-2.99-1.28-2.63-6.98-1.78-18.33.82-10.92,1.33-16.41,6.16-18.07,2.54-.87,5.16-.53,5.94-.43,6.72.86,7.48,6.13,11.32,16.16,4.89,12.79,7.51,14.3,4.38,17Z"/>
    <path class="st0" d="M504.71,581.06c-2.45,6.97-14.57,17.56-22.17,19.28-3.44.78-6.07-4.25-11.19-14.35-4.93-9.71-7.32-14.66-3.71-19.06,1.9-2.31,4.49-3.66,5.28-4.06,6.67-3.45,10.12.52,18.88,6.58,11.19,7.74,14.39,7.39,12.91,11.6Z"/>
    <path class="st0" d="M424.21,605.24c-5.56-.09-15.48-6.54-18.08-11.8-2.47-5.01,1.27-7.82,8.63-11.99,2.38-1.35,13.22-7.5,17.32-4.61,2.61,1.84,1.92,6.24-1.56,15.81-3.76,10.33-2.94,12.65-6.31,12.59Z"/>
    <path class="st0" d="M397.95,581.46c-3.17-4.2-4.84-15.64-3.01-20.88.83-2.37,4.77-1.98,12.61-1.1,7.55.85,11.34,1.35,12.57,5.25.65,2.04.46,4.13.41,4.76-.47,5.36-4.09,5.88-10.94,8.76-8.73,3.69-9.73,5.75-11.65,3.21Z"/>
    <path class="st0" d="M395.65,552.48c-1.16-4.43.79-14.56,3.59-18.49,2.66-3.74,5.28-1.78,9.55,2.54,1.38,1.4,7.69,7.77,6.74,12.03-.6,2.72-3.57,3.74-10.45,4.41-7.42.72-8.73,2.19-9.43-.49Z"/>
    <path class="st0" d="M409.45,527.42c2.6-3.01,10.82-7.03,15-7.31,3.98-.27,3.86,2.38,2.86,7.28-.32,1.59-1.8,8.82-5.31,10.44-2.24,1.03-4.43-.3-8.28-4.26-4.15-4.27-5.85-4.33-4.27-6.15Z"/>
    <path class="st0" d="M436.26,519.42c3.66-.03,11.11,3.47,13.6,6.41,1.12,1.33-.52,3.21-3.86,6.93-3.21,3.57-4.87,5.34-7.65,4.49-1.46-.45-2.64-1.34-3-1.61-3.04-2.29-2.06-4.35-1.34-8.99.92-5.91.03-7.21,2.25-7.23Z"/>
    <path class="st0" d="M452.99,549.65c6.48-1.5,8.9-9.95,7.09-12.43-2.61-3.56-16.98.98-17.56,5.77-.37,3.09,4.78,7.99,10.48,6.67Z"/>
    <path class="st0" d="M450.71,554.29c5.72-1.68,10.71,3.93,10.16,6.69-.79,3.96-13.91,6.73-16.11,3.2-1.42-2.27.92-8.42,5.95-9.89Z"/>
    <path class="st0" d="M427.25,557.17c-4.58-5.73-.64-14.23,2.73-14.97,4.83-1.06,14.13,12.62,11.2,16.89-1.89,2.75-9.9,3.12-13.93-1.92Z"/>
  </g>
</svg>